<?xml version="1.0" encoding="utf-8"?>
<!-- Generator: Adobe Illustrator 16.0.0, SVG Export Plug-In . SVG Version: 6.00 Build 0)  -->
<!DOCTYPE svg PUBLIC "-//W3C//DTD SVG 1.1//EN" "http://www.w3.org/Graphics/SVG/1.1/DTD/svg11.dtd">
<svg version="1.1" xmlns="http://www.w3.org/2000/svg" xmlns:xlink="http://www.w3.org/1999/xlink" x="0px" y="0px"
	 width="212.598px" height="216.334px" viewBox="0 0 212.598 216.334" enable-background="new 0 0 212.598 216.334"
	 xml:space="preserve">
<g id="Layer_2">
</g>
<g id="Layer_1">
	<rect x="198.425" y="58.144" fill="#5DB33D" width="14.174" height="14.173"/>
	<rect x="184.252" y="72.317" fill="#448963" width="14.173" height="14.173"/>
	<rect x="184.252" y="86.491" fill="#5DB33D" width="14.173" height="14.173"/>
	<rect x="184.251" y="100.664" fill="#5DB33D" width="14.174" height="14.173"/>
	<rect x="184.251" y="114.837" fill="#D3E768" width="14.174" height="14.173"/>
	<rect x="184.252" y="129.01" fill="#448963" width="14.173" height="14.173"/>
	<rect x="198.425" y="129.01" fill="#5DB33D" width="14.173" height="14.173"/>
	<rect x="184.251" y="143.183" fill="#5DB33D" width="14.174" height="14.173"/>
	<rect x="184.251" y="157.356" fill="#448963" width="14.174" height="14.173"/>
	<rect x="184.251" y="171.529" fill="#5DB33D" width="14.174" height="14.174"/>
	<rect x="184.251" y="185.703" fill="#368047" width="14.174" height="14.174"/>
	<rect x="184.251" y="199.877" fill="#2D3D5E" width="14.174" height="14.173"/>
	<rect x="198.425" y="143.184" fill="#448963" width="14.173" height="14.173"/>
	<rect x="198.425" y="157.356" fill="#448963" width="14.173" height="14.173"/>
	<rect x="198.425" y="171.529" fill="#448963" width="14.173" height="14.174"/>
	<rect x="198.425" y="185.703" fill="#368047" width="14.173" height="14.174"/>
	<rect x="198.425" y="199.877" fill="#19444E" width="14.173" height="14.173"/>
	<rect x="184.252" y="58.144" fill="#D3E768" width="14.173" height="14.173"/>
	<rect x="170.079" y="58.144" fill="#F5E5D0" width="14.172" height="14.173"/>
	<rect x="155.905" y="72.317" fill="#5DB33D" width="14.173" height="14.173"/>
	<rect x="170.079" y="72.317" fill="#96CD56" width="14.172" height="14.173"/>
	<rect x="155.905" y="86.49" fill="#F5E5D0" width="14.173" height="14.173"/>
	<rect x="170.079" y="86.49" fill="#448963" width="14.172" height="14.173"/>
	<rect x="155.905" y="100.663" fill="#96CD56" width="14.172" height="14.173"/>
	<rect x="170.079" y="100.663" fill="#5DB33D" width="14.172" height="14.173"/>
	<rect x="155.905" y="114.836" fill="#F5E5D0" width="14.172" height="14.173"/>
	<rect x="170.079" y="114.836" fill="#96CD56" width="14.172" height="14.173"/>
	<rect x="155.905" y="129.01" fill="#5DB33D" width="14.173" height="14.173"/>
	<rect x="170.078" y="129.01" fill="#5DB33D" width="14.173" height="14.173"/>
	<rect x="155.905" y="143.183" fill="#96CD56" width="14.172" height="14.173"/>
	<rect x="155.905" y="157.356" fill="#19444E" width="14.172" height="14.173"/>
	<rect x="155.905" y="171.529" fill="#448963" width="14.172" height="14.174"/>
	<rect x="155.905" y="185.703" fill="#317163" width="14.172" height="14.173"/>
	<rect x="155.905" y="199.876" fill="#317163" width="14.172" height="14.173"/>
	<rect x="170.078" y="143.183" fill="#96CD56" width="14.173" height="14.173"/>
	<rect x="170.078" y="157.356" fill="#19444E" width="14.173" height="14.173"/>
	<rect x="170.078" y="171.529" fill="#448963" width="14.173" height="14.174"/>
	<rect x="170.078" y="185.703" fill="#448963" width="14.173" height="14.173"/>
	<rect x="170.078" y="199.876" fill="#2D3D5E" width="14.173" height="14.173"/>
	<rect x="155.905" y="58.144" fill="#5DB33D" width="14.173" height="14.173"/>
	<rect x="141.732" y="58.145" fill="#5DB33D" width="14.173" height="14.173"/>
	<rect x="127.559" y="72.318" fill="#96CD56" width="14.173" height="14.173"/>
	<rect x="141.732" y="72.318" fill="#96CD56" width="14.173" height="14.173"/>
	<rect x="127.559" y="86.491" fill="#D3E768" width="14.173" height="14.173"/>
	<rect x="141.732" y="86.491" fill="#5DB33D" width="14.173" height="14.173"/>
	<rect x="127.559" y="100.664" fill="#96CD56" width="14.173" height="14.173"/>
	<rect x="141.732" y="100.664" fill="#5DB33D" width="14.173" height="14.173"/>
	<rect x="127.559" y="114.837" fill="#5DB33D" width="14.173" height="14.173"/>
	<rect x="141.732" y="114.837" fill="#96CD56" width="14.173" height="14.173"/>
	<rect x="127.559" y="129.011" fill="#96CD56" width="14.173" height="14.173"/>
	<rect x="141.732" y="129.011" fill="#96CD56" width="14.173" height="14.173"/>
	<rect x="127.559" y="143.184" fill="#5DB33D" width="14.173" height="14.173"/>
	<rect x="127.559" y="157.357" fill="#96CD56" width="14.173" height="14.173"/>
	<rect x="127.559" y="171.53" fill="#5DB33D" width="14.173" height="14.173"/>
	<rect x="127.559" y="185.703" fill="#2D3D5E" width="14.173" height="14.174"/>
	<rect x="127.559" y="199.877" fill="#317163" width="14.173" height="14.174"/>
	<rect x="141.732" y="143.184" fill="#5DB33D" width="14.173" height="14.173"/>
	<rect x="141.732" y="157.357" fill="#368047" width="14.173" height="14.173"/>
	<rect x="141.732" y="171.53" fill="#5DB33D" width="14.173" height="14.173"/>
	<rect x="141.732" y="185.703" fill="#2D3D5E" width="14.173" height="14.174"/>
	<rect x="141.732" y="199.877" fill="#317163" width="14.173" height="14.174"/>
	<rect x="127.559" y="58.145" fill="#D3E768" width="14.173" height="14.173"/>
	<rect x="113.386" y="58.144" fill="#F5E5D0" width="14.173" height="14.173"/>
	<rect x="99.212" y="72.317" fill="#96CD56" width="14.173" height="14.173"/>
	<rect x="113.386" y="72.317" fill="#D3E768" width="14.173" height="14.173"/>
	<rect x="99.212" y="86.491" fill="#5DB33D" width="14.173" height="14.173"/>
	<rect x="113.386" y="86.491" fill="#96CD56" width="14.173" height="14.173"/>
	<rect x="99.212" y="100.664" fill="#D3E768" width="14.173" height="14.173"/>
	<rect x="113.386" y="100.664" fill="#96CD56" width="14.173" height="14.173"/>
	<rect x="99.212" y="114.837" fill="#5DB33D" width="14.173" height="14.173"/>
	<rect x="113.386" y="114.837" fill="#5DB33D" width="14.173" height="14.173"/>
	<rect x="99.212" y="129.01" fill="#96CD56" width="14.173" height="14.173"/>
	<rect x="113.385" y="129.01" fill="#368047" width="14.173" height="14.173"/>
	<rect x="99.212" y="143.183" fill="#5DB33D" width="14.173" height="14.173"/>
	<rect x="99.212" y="157.356" fill="#368047" width="14.173" height="14.173"/>
	<rect x="99.212" y="171.529" fill="#448963" width="14.173" height="14.174"/>
	<rect x="99.212" y="185.703" fill="#368047" width="14.173" height="14.174"/>
	<rect x="113.385" y="143.184" fill="#96CD56" width="14.173" height="14.173"/>
	<rect x="113.385" y="157.356" fill="#5DB33D" width="14.173" height="14.173"/>
	<rect x="113.385" y="171.529" fill="#368047" width="14.173" height="14.174"/>
	<rect x="113.385" y="185.703" fill="#368047" width="14.173" height="14.174"/>
	<rect x="113.385" y="199.877" fill="#2D3D5E" width="14.173" height="14.173"/>
	<rect x="99.212" y="58.144" fill="#D3E768" width="14.173" height="14.173"/>
	<rect x="85.04" y="58.145" fill="#96CD56" width="14.173" height="14.173"/>
	<rect x="70.867" y="72.318" fill="#96CD56" width="14.172" height="14.173"/>
	<rect x="85.04" y="72.318" fill="#F5E5D0" width="14.173" height="14.173"/>
	<rect x="70.867" y="86.491" fill="#96CD56" width="14.172" height="14.173"/>
	<rect x="85.04" y="86.491" fill="#D3E768" width="14.173" height="14.173"/>
	<rect x="70.866" y="100.664" fill="#5DB33D" width="14.173" height="14.173"/>
	<rect x="85.04" y="100.664" fill="#5DB33D" width="14.173" height="14.173"/>
	<rect x="70.866" y="114.837" fill="#96CD56" width="14.173" height="14.173"/>
	<rect x="85.04" y="114.837" fill="#368047" width="14.173" height="14.173"/>
	<rect x="70.867" y="129.011" fill="#5DB33D" width="14.172" height="14.173"/>
	<rect x="85.039" y="129.011" fill="#96CD56" width="14.173" height="14.173"/>
	<rect x="70.866" y="143.184" fill="#448963" width="14.173" height="14.173"/>
	<rect x="70.866" y="157.357" fill="#448963" width="14.173" height="14.173"/>
	<rect x="70.866" y="171.53" fill="#368048" width="14.173" height="14.173"/>
	<rect x="70.866" y="185.703" fill="#448963" width="14.173" height="14.174"/>
	<rect x="85.039" y="143.184" fill="#368047" width="14.173" height="14.173"/>
	<rect x="85.039" y="157.357" fill="#448963" width="14.173" height="14.173"/>
	<rect x="85.039" y="171.53" fill="#448963" width="14.173" height="14.173"/>
	<rect x="85.039" y="185.703" fill="#2D3D5E" width="14.173" height="14.174"/>
	<rect x="70.867" y="58.145" fill="#D3E768" width="14.172" height="14.173"/>
	<rect x="56.693" y="58.144" fill="#D3E768" width="14.173" height="14.173"/>
	<rect x="42.519" y="72.317" fill="#448963" width="14.174" height="14.173"/>
	<rect x="56.693" y="72.317" fill="#96CD56" width="14.173" height="14.173"/>
	<rect x="42.519" y="86.491" fill="#D3E768" width="14.174" height="14.173"/>
	<rect x="56.693" y="86.491" fill="#5DB33D" width="14.173" height="14.173"/>
	<rect x="42.519" y="100.664" fill="#448963" width="14.172" height="14.173"/>
	<rect x="56.693" y="100.664" fill="#5DB33D" width="14.173" height="14.173"/>
	<rect x="42.519" y="114.837" fill="#5DB33D" width="14.172" height="14.173"/>
	<rect x="56.693" y="114.837" fill="#448963" width="14.173" height="14.173"/>
	<rect x="42.519" y="129.01" fill="#317163" width="14.174" height="14.173"/>
	<rect x="56.693" y="129.01" fill="#448963" width="14.172" height="14.173"/>
	<rect x="42.519" y="143.183" fill="#317163" width="14.172" height="14.173"/>
	<rect x="42.519" y="157.356" fill="#378148" width="14.172" height="14.173"/>
	<rect x="42.519" y="171.529" fill="#2D3D5E" width="14.172" height="14.174"/>
	<rect x="42.519" y="185.703" fill="#327264" width="14.172" height="14.174"/>
	<rect x="56.693" y="143.184" fill="#5DB33D" width="14.172" height="14.173"/>
	<rect x="56.693" y="157.356" fill="#448963" width="14.172" height="14.173"/>
	<rect x="56.693" y="171.529" fill="#448963" width="14.172" height="14.174"/>
	<rect x="56.693" y="185.703" fill="#2D3D5E" width="14.172" height="14.174"/>
	<rect x="42.519" y="58.144" fill="#5DB33D" width="14.174" height="14.173"/>
	<rect x="28.348" y="58.145" fill="#5DB33D" width="14.171" height="14.173"/>
	<rect x="28.348" y="72.318" fill="#5DB33D" width="14.171" height="14.173"/>
	<rect x="14.174" y="86.492" fill="#448963" width="14.172" height="14.173"/>
	<rect x="28.348" y="86.492" fill="#448963" width="14.171" height="14.173"/>
	<rect x="14.174" y="100.665" fill="#368047" width="14.172" height="14.173"/>
	<rect x="28.348" y="100.665" fill="#5DB33D" width="14.171" height="14.173"/>
	<rect x="14.174" y="114.838" fill="#448963" width="14.172" height="14.173"/>
	<rect x="28.348" y="114.838" fill="#368047" width="14.171" height="14.173"/>
	<rect x="14.174" y="129.011" fill="#448963" width="14.172" height="14.173"/>
	<rect x="28.346" y="129.011" fill="#2D3D5E" width="14.173" height="14.173"/>
	<rect x="14.174" y="143.184" fill="#448963" width="14.172" height="14.173"/>
	<rect x="14.174" y="157.357" fill="#2D3D5E" width="14.172" height="14.174"/>
	<rect x="14.174" y="171.531" fill="#2D3D5E" width="14.172" height="14.173"/>
	<rect x="14.174" y="185.704" fill="#327264" width="14.172" height="14.173"/>
	<rect x="14.174" y="199.877" fill="#2D3D5E" width="14.172" height="14.174"/>
	<rect x="28.346" y="143.185" fill="#448963" width="14.173" height="14.173"/>
	<rect x="28.346" y="157.357" fill="#327264" width="14.173" height="14.174"/>
	<rect x="28.346" y="171.531" fill="#327264" width="14.173" height="14.173"/>
	<rect x="28.346" y="185.704" fill="#2D3D5E" width="14.173" height="14.173"/>
	<rect x="14.174" y="58.145" fill="#368047" width="14.172" height="14.173"/>
	<rect y="114.837" fill="#2D3D5E" width="14.174" height="14.173"/>
	<rect y="129.011" fill="#448963" width="14.172" height="14.173"/>
	<rect y="143.184" fill="#2D3D5E" width="14.172" height="14.173"/>
	<rect y="157.357" fill="#327264" width="14.172" height="14.173"/>
	<rect y="171.53" fill="#327264" width="14.172" height="14.173"/>
	<rect y="185.703" fill="#2D3D5E" width="14.172" height="14.174"/>
	<rect y="199.877" fill="#2D3D5E" width="14.172" height="14.174"/>
	<rect x="198.425" y="1.451" fill="#368047" width="14.174" height="14.174"/>
	<rect x="184.252" y="15.625" fill="#5DB33D" width="14.173" height="14.174"/>
	<rect x="198.425" y="15.625" fill="#368148" width="14.174" height="14.174"/>
	<rect x="184.252" y="29.799" fill="#F5E5D0" width="14.173" height="14.173"/>
	<rect x="198.425" y="29.799" fill="#96CD56" width="14.174" height="14.173"/>
	<rect x="184.251" y="43.971" fill="#5DB33D" width="14.174" height="14.174"/>
	<rect x="198.425" y="43.971" fill="#5DB33D" width="14.174" height="14.174"/>
	<rect x="184.252" y="1.451" fill="#5DB33D" width="14.173" height="14.174"/>
	<rect x="170.079" y="1.451" fill="#5DB33D" width="14.172" height="14.174"/>
	<rect x="155.905" y="15.625" fill="#5DB33D" width="14.173" height="14.173"/>
	<rect x="170.079" y="15.625" fill="#368047" width="14.172" height="14.173"/>
	<rect x="155.905" y="29.798" fill="#96CD56" width="14.173" height="14.173"/>
	<rect x="170.079" y="29.798" fill="#D3E768" width="14.172" height="14.173"/>
	<rect x="155.905" y="43.971" fill="#5DB33D" width="14.172" height="14.173"/>
	<rect x="170.079" y="43.971" fill="#5DB33D" width="14.172" height="14.173"/>
	<rect x="155.905" y="1.451" fill="#5DB33D" width="14.173" height="14.174"/>
	<rect x="141.732" y="1.452" fill="#F5E5D0" width="14.173" height="14.173"/>
	<rect x="127.559" y="15.625" fill="#5DB33D" width="14.173" height="14.174"/>
	<rect x="141.732" y="15.625" fill="#96CD56" width="14.173" height="14.174"/>
	<rect x="127.559" y="29.799" fill="#96CD56" width="14.173" height="14.174"/>
	<rect x="141.732" y="29.799" fill="#5DB33D" width="14.173" height="14.174"/>
	<rect x="127.559" y="43.972" fill="#96CD56" width="14.173" height="14.173"/>
	<rect x="141.732" y="43.972" fill="#F5E5D0" width="14.173" height="14.173"/>
	<rect x="127.559" y="1.452" fill="#D3E768" width="14.173" height="14.173"/>
	<rect x="99.212" y="15.625" fill="#5DB33D" width="14.173" height="14.174"/>
	<rect x="113.386" y="15.625" fill="#368047" width="14.173" height="14.174"/>
	<rect x="99.212" y="29.799" fill="#96CD56" width="14.173" height="14.173"/>
	<rect x="113.386" y="29.799" fill="#5DB33D" width="14.173" height="14.173"/>
	<rect x="99.212" y="43.971" fill="#F5E5D0" width="14.173" height="14.174"/>
	<rect x="113.386" y="43.971" fill="#D3E768" width="14.173" height="14.174"/>
	<rect x="70.867" y="15.625" fill="#96CD56" width="14.172" height="14.174"/>
	<rect x="85.04" y="15.625" fill="#5DB33D" width="14.173" height="14.174"/>
	<rect x="70.867" y="29.799" fill="#F5E5D0" width="14.172" height="14.174"/>
	<rect x="85.04" y="29.799" fill="#D3E768" width="14.173" height="14.174"/>
	<rect x="70.866" y="43.972" fill="#96CD56" width="14.173" height="14.173"/>
	<rect x="85.04" y="43.972" fill="#F5E5D0" width="14.173" height="14.173"/>
	<rect x="56.693" y="1.451" fill="#96CD56" width="14.173" height="14.174"/>
	<rect x="42.519" y="15.625" fill="#96CD56" width="14.174" height="14.174"/>
	<rect x="56.693" y="15.625" fill="#D3E768" width="14.173" height="14.174"/>
	<rect x="42.519" y="29.799" fill="#368047" width="14.174" height="14.173"/>
	<rect x="56.693" y="29.799" fill="#5DB33D" width="14.173" height="14.173"/>
	<rect x="42.519" y="43.971" fill="#368047" width="14.172" height="14.174"/>
	<rect x="56.693" y="43.971" fill="#5DB33D" width="14.173" height="14.174"/>
	<rect x="42.519" y="1.451" fill="#5DB33D" width="14.174" height="14.174"/>
	<rect x="28.348" y="1.453" fill="#368047" width="14.171" height="14.173"/>
	<rect x="14.174" y="15.626" fill="#96CD56" width="14.172" height="14.173"/>
	<rect x="28.348" y="15.626" fill="#5DB33D" width="14.171" height="14.173"/>
	<rect x="14.174" y="29.799" fill="#368047" width="14.172" height="14.174"/>
	<rect x="28.348" y="29.799" fill="#5DB33D" width="14.171" height="14.174"/>
	<rect x="14.174" y="43.973" fill="#448963" width="14.172" height="14.173"/>
	<rect x="28.348" y="43.973" fill="#368047" width="14.171" height="14.173"/>
	<rect x="14.174" y="1.453" fill="#96CD56" width="14.172" height="14.173"/>
	<rect y="1.452" fill="#368047" width="14.174" height="14.173"/>
	<rect y="15.625" fill="#5DB33D" width="14.174" height="14.174"/>
	<rect y="43.972" fill="#F5E5D0" width="14.173" height="14.173"/>
	<rect y="58.145" fill="#D3E768" width="14.173" height="14.173"/>
	<rect y="72.318" fill="#96CD56" width="14.173" height="14.173"/>
	<rect y="86.491" fill="#96CD56" width="14.173" height="14.173"/>
	<rect y="100.665" fill="#5DB33D" width="14.173" height="14.173"/>
	<rect y="29.798" fill="#D3E768" width="14.173" height="14.174"/>
	<rect x="14.172" y="72.318" fill="#D3E768" width="14.174" height="14.173"/>
	<rect x="198.425" y="114.838" fill="#448963" width="14.172" height="14.173"/>
	<rect x="198.425" y="100.665" fill="#2D3D5E" width="14.173" height="14.173"/>
	<rect x="198.425" y="72.318" fill="#448963" width="14.172" height="14.173"/>
	<rect x="198.425" y="86.491" fill="#5DB33D" width="14.172" height="14.173"/>
	<rect x="99.212" y="1.452" fill="#5DB33D" width="14.172" height="14.173"/>
	<rect x="113.387" y="1.452" fill="#5DB33D" width="14.172" height="14.173"/>
	<rect x="70.866" y="1.453" fill="#96CD56" width="14.173" height="14.173"/>
	<rect x="85.04" y="1.453" fill="#F5E5D0" width="14.173" height="14.173"/>
	<rect x="70.865" y="199.877" fill="#448963" width="14.173" height="14.174"/>
	<rect x="85.039" y="199.877" fill="#368047" width="14.173" height="14.174"/>
	<rect x="42.519" y="199.878" fill="#368048" width="14.173" height="14.173"/>
	<rect x="56.692" y="199.878" fill="#448963" width="14.173" height="14.173"/>
	<rect x="28.346" y="199.877" fill="#448963" width="14.172" height="14.174"/>
	<rect x="99.212" y="199.876" fill="#448963" width="14.173" height="14.173"/>
</g>
</svg>
