<?xml version="1.0" encoding="utf-8"?>
<!-- Generator: Adobe Illustrator 16.0.0, SVG Export Plug-In . SVG Version: 6.00 Build 0)  -->
<!DOCTYPE svg PUBLIC "-//W3C//DTD SVG 1.1//EN" "http://www.w3.org/Graphics/SVG/1.1/DTD/svg11.dtd">
<svg version="1.1" xmlns="http://www.w3.org/2000/svg" xmlns:xlink="http://www.w3.org/1999/xlink" x="0px" y="0px" width="1845px"
	 height="242px" viewBox="0 0 1845 242" enable-background="new 0 0 1845 242" xml:space="preserve">
<g id="Layer_3">
	<g>
		<circle fill="#F64E15" stroke="#F6D26B" stroke-width="6" stroke-miterlimit="10" cx="356.941" cy="64.305" r="34"/>
		<circle fill="#F64E15" stroke="#F6D26B" stroke-width="6" stroke-miterlimit="10" cx="222.942" cy="143.691" r="34"/>
		<g>
			
				<ellipse fill="#F64E15" stroke="#F6D26B" stroke-width="6" stroke-miterlimit="10" cx="277.328" cy="102.637" rx="78.061" ry="85.822"/>
			<circle fill="#F6D26B" cx="268.836" cy="58.772" r="28.32"/>
			<circle fill="#F6D26B" cx="274.516" cy="145.772" r="28.32"/>
			<circle fill="#F6D26B" cx="258.321" cy="98.451" r="5.066"/>
			<circle fill="#F6D26B" cx="226.25" cy="90.792" r="11.381"/>
			<circle fill="#F6D26B" cx="319.227" cy="81.544" r="19.07"/>
			<circle fill="#F6D26B" cx="326.328" cy="124.194" r="11.57"/>
		</g>
	</g>
	<g>
		
			<ellipse fill="#F64E15" stroke="#F6D26B" stroke-width="6" stroke-miterlimit="10" cx="91.439" cy="102.693" rx="78.061" ry="85.822"/>
		<circle fill="#F6D26B" cx="82.947" cy="58.828" r="28.32"/>
		<circle fill="#F6D26B" cx="88.626" cy="145.828" r="28.32"/>
		<circle fill="#F6D26B" cx="72.432" cy="98.507" r="5.066"/>
		<circle fill="#F6D26B" cx="40.361" cy="90.848" r="11.381"/>
		<circle fill="#F6D26B" cx="133.337" cy="81.6" r="19.07"/>
		<circle fill="#F6D26B" cx="140.439" cy="124.25" r="11.57"/>
	</g>
	<g>
		<circle fill="#F64E15" stroke="#F6D26B" stroke-width="6" stroke-miterlimit="10" cx="662.952" cy="141.849" r="34"/>
		<circle fill="#F64E15" stroke="#F6D26B" stroke-width="6" stroke-miterlimit="10" cx="796.952" cy="62.463" r="34"/>
		<g>
			
				<ellipse fill="#F64E15" stroke="#F6D26B" stroke-width="6" stroke-miterlimit="10" cx="742.566" cy="103.517" rx="78.061" ry="85.822"/>
			<circle fill="#F6D26B" cx="751.058" cy="147.382" r="28.321"/>
			<circle fill="#F6D26B" cx="745.378" cy="60.382" r="28.321"/>
			<circle fill="#F6D26B" cx="761.573" cy="107.703" r="5.066"/>
			<circle fill="#F6D26B" cx="793.644" cy="115.362" r="11.382"/>
			<circle fill="#F6D26B" cx="700.667" cy="124.61" r="19.07"/>
			<circle fill="#F6D26B" cx="693.565" cy="81.96" r="11.57"/>
		</g>
	</g>
	<g>
		<circle fill="#F64E15" stroke="#F6D26B" stroke-width="6" stroke-miterlimit="10" cx="1192.219" cy="186.633" r="34"/>
		<circle fill="#F64E15" stroke="#F6D26B" stroke-width="6" stroke-miterlimit="10" cx="1112.833" cy="52.633" r="34"/>
		<g>
			
				<ellipse fill="#F64E15" stroke="#F6D26B" stroke-width="6" stroke-miterlimit="10" cx="1153.886" cy="107.019" rx="85.822" ry="78.061"/>
			<circle fill="#F6D26B" cx="1197.752" cy="98.528" r="28.321"/>
			<circle fill="#F6D26B" cx="1110.751" cy="104.207" r="28.321"/>
			<circle fill="#F6D26B" cx="1158.073" cy="88.013" r="5.066"/>
			<circle fill="#F6D26B" cx="1165.731" cy="55.942" r="11.381"/>
			<circle fill="#F6D26B" cx="1174.979" cy="148.918" r="19.07"/>
			<circle fill="#F6D26B" cx="1132.329" cy="156.02" r="11.57"/>
		</g>
	</g>
	<g>
		<circle fill="#F64E15" stroke="#F6D26B" stroke-width="6" stroke-miterlimit="10" cx="1506.634" cy="48.934" r="34"/>
		<circle fill="#F64E15" stroke="#F6D26B" stroke-width="6" stroke-miterlimit="10" cx="1586.02" cy="182.934" r="34"/>
		<g>
			
				<ellipse fill="#F64E15" stroke="#F6D26B" stroke-width="6" stroke-miterlimit="10" cx="1544.966" cy="128.548" rx="85.823" ry="78.061"/>
			<circle fill="#F6D26B" cx="1501.101" cy="137.04" r="28.321"/>
			<circle fill="#F6D26B" cx="1588.102" cy="131.36" r="28.321"/>
			<circle fill="#F6D26B" cx="1540.779" cy="147.555" r="5.066"/>
			<circle fill="#F6D26B" cx="1533.12" cy="179.625" r="11.382"/>
			<circle fill="#F6D26B" cx="1523.873" cy="86.649" r="19.07"/>
			<circle fill="#F6D26B" cx="1566.523" cy="79.547" r="11.57"/>
		</g>
	</g>
	<circle fill="#F64E15" stroke="#F6D26B" stroke-width="6" stroke-miterlimit="10" cx="571.942" cy="142.42" r="34"/>
	<circle fill="#F64E15" stroke="#F6D26B" stroke-width="6" stroke-miterlimit="10" cx="437.942" cy="63.034" r="34"/>
	
		<ellipse fill="#F64E15" stroke="#F6D26B" stroke-width="6" stroke-miterlimit="10" cx="492.329" cy="104.088" rx="78.061" ry="85.822"/>
	<circle fill="#F64E15" stroke="#F6D26B" stroke-width="6" stroke-miterlimit="10" cx="879.953" cy="65.754" r="34"/>
	<circle fill="#F64E15" stroke="#F6D26B" stroke-width="6" stroke-miterlimit="10" cx="1013.953" cy="145.14" r="34"/>
	
		<ellipse fill="#F64E15" stroke="#F6D26B" stroke-width="6" stroke-miterlimit="10" cx="959.567" cy="104.086" rx="78.061" ry="85.822"/>
	<circle fill="#F6D26B" cx="968.059" cy="147.953" r="28.321"/>
	<circle fill="#F6D26B" cx="962.379" cy="60.953" r="28.321"/>
	<circle fill="#F6D26B" cx="978.574" cy="108.274" r="5.066"/>
	<circle fill="#F6D26B" cx="1010.645" cy="115.934" r="11.382"/>
	<circle fill="#F6D26B" cx="917.668" cy="125.181" r="19.07"/>
	<circle fill="#F6D26B" cx="910.566" cy="82.531" r="11.57"/>
	<circle fill="#F64E15" stroke="#F6D26B" stroke-width="6" stroke-miterlimit="10" cx="1311.621" cy="186.062" r="34"/>
	<circle fill="#F64E15" stroke="#F6D26B" stroke-width="6" stroke-miterlimit="10" cx="1391.007" cy="52.062" r="34"/>
	
		<ellipse fill="#F64E15" stroke="#F6D26B" stroke-width="6" stroke-miterlimit="10" cx="1349.954" cy="106.448" rx="85.822" ry="78.061"/>
	<circle fill="#F6D26B" cx="1393.822" cy="97.956" r="28.321"/>
	<circle fill="#F6D26B" cx="1306.821" cy="103.636" r="28.321"/>
	<circle fill="#F6D26B" cx="1354.144" cy="87.441" r="5.066"/>
	<circle fill="#F6D26B" cx="1361.802" cy="55.371" r="11.381"/>
	<circle fill="#F6D26B" cx="1371.05" cy="148.347" r="19.07"/>
	<circle fill="#F6D26B" cx="1328.399" cy="155.449" r="11.57"/>
	<circle fill="#F64E15" stroke="#F6D26B" stroke-width="6" stroke-miterlimit="10" cx="1776.666" cy="48.36" r="34"/>
	<circle fill="#F64E15" stroke="#F6D26B" stroke-width="6" stroke-miterlimit="10" cx="1697.28" cy="182.36" r="34"/>
	
		<ellipse fill="#F64E15" stroke="#F6D26B" stroke-width="6" stroke-miterlimit="10" cx="1738.334" cy="127.973" rx="85.823" ry="78.061"/>
	<circle fill="#F6D26B" cx="1694.467" cy="136.466" r="28.321"/>
	<circle fill="#F6D26B" cx="1781.468" cy="130.786" r="28.321"/>
	<circle fill="#F6D26B" cx="1734.146" cy="146.98" r="5.066"/>
	<circle fill="#F6D26B" cx="1726.486" cy="179.051" r="11.382"/>
	<circle fill="#F6D26B" cx="1717.239" cy="86.075" r="19.07"/>
	<circle fill="#F6D26B" cx="1759.89" cy="78.973" r="11.57"/>
</g>
<g id="Layer_2">
	<circle fill="#F6D26B" cx="483.837" cy="60.221" r="28.32"/>
	<circle fill="#F6D26B" cx="489.517" cy="147.221" r="28.32"/>
	<circle fill="#F6D26B" cx="473.322" cy="99.899" r="5.065"/>
	<circle fill="#F6D26B" cx="441.251" cy="92.24" r="11.381"/>
	<circle fill="#F6D26B" cx="534.228" cy="82.993" r="19.07"/>
	<circle fill="#F6D26B" cx="541.329" cy="125.643" r="11.57"/>
</g>
</svg>
