<?xml version="1.0" encoding="utf-8"?>
<!-- Generator: Adobe Illustrator 16.0.0, SVG Export Plug-In . SVG Version: 6.00 Build 0)  -->
<!DOCTYPE svg PUBLIC "-//W3C//DTD SVG 1.1//EN" "http://www.w3.org/Graphics/SVG/1.1/DTD/svg11.dtd">
<svg version="1.1" xmlns="http://www.w3.org/2000/svg" xmlns:xlink="http://www.w3.org/1999/xlink" x="0px" y="0px"
	 width="1354.432px" height="149.908px" viewBox="23.635 92.092 1354.432 149.908"
	 enable-background="new 23.635 92.092 1354.432 149.908" xml:space="preserve">
<g id="Layer_2_1_">
	<rect x="23.635" y="92.092" fill="none" width="1354.432" height="149.908"/>
</g>
<g id="Layer_1">
	<g>
		
			<ellipse fill="#F64E15" stroke="#F6D26B" stroke-width="6" stroke-miterlimit="10" cx="100.648" cy="167.046" rx="44.271" ry="48.672"/>
		<circle fill="#F6D26B" cx="95.832" cy="142.168" r="16.061"/>
		<circle fill="#F6D26B" cx="99.053" cy="191.509" r="16.061"/>
		<circle fill="#F6D26B" cx="89.869" cy="164.672" r="2.873"/>
		<circle fill="#F6D26B" cx="71.68" cy="160.328" r="6.454"/>
		<circle fill="#F6D26B" cx="124.409" cy="155.083" r="10.815"/>
		<circle fill="#F6D26B" cx="128.437" cy="179.271" r="6.562"/>
	</g>
	<g>
		<circle fill="#F64E15" stroke="#F6D26B" stroke-width="6" stroke-miterlimit="10" cx="295.22" cy="145.685" r="19.283"/>
		<circle fill="#F64E15" stroke="#F6D26B" stroke-width="6" stroke-miterlimit="10" cx="219.226" cy="190.707" r="19.282"/>
		<g>
			
				<ellipse fill="#F64E15" stroke="#F6D26B" stroke-width="6" stroke-miterlimit="10" cx="250.07" cy="167.424" rx="44.269" ry="48.672"/>
			<circle fill="#F6D26B" cx="245.254" cy="142.547" r="16.061"/>
			<circle fill="#F6D26B" cx="248.475" cy="191.887" r="16.061"/>
			<circle fill="#F6D26B" cx="239.29" cy="165.05" r="2.873"/>
			<circle fill="#F6D26B" cx="221.102" cy="160.706" r="6.454"/>
			<circle fill="#F6D26B" cx="273.831" cy="155.462" r="10.815"/>
			<circle fill="#F6D26B" cx="277.859" cy="179.649" r="6.562"/>
		</g>
	</g>
	<g>
		<circle fill="#F64E15" stroke="#F6D26B" stroke-width="6" stroke-miterlimit="10" cx="504.765" cy="188.663" r="19.282"/>
		<circle fill="#F64E15" stroke="#F6D26B" stroke-width="6" stroke-miterlimit="10" cx="580.758" cy="143.641" r="19.282"/>
		<g>
			
				<ellipse fill="#F64E15" stroke="#F6D26B" stroke-width="6" stroke-miterlimit="10" cx="549.916" cy="166.923" rx="44.269" ry="48.672"/>
			<circle fill="#F6D26B" cx="554.731" cy="191.8" r="16.062"/>
			<circle fill="#F6D26B" cx="551.51" cy="142.46" r="16.061"/>
			<circle fill="#F6D26B" cx="560.695" cy="169.297" r="2.873"/>
			<circle fill="#F6D26B" cx="578.883" cy="173.641" r="6.455"/>
			<circle fill="#F6D26B" cx="526.153" cy="178.885" r="10.815"/>
			<circle fill="#F6D26B" cx="522.126" cy="154.698" r="6.562"/>
		</g>
	</g>
	<g>
		<circle fill="#F64E15" stroke="#F6D26B" stroke-width="6" stroke-miterlimit="10" cx="871.924" cy="212.059" r="19.282"/>
		<circle fill="#F64E15" stroke="#F6D26B" stroke-width="6" stroke-miterlimit="10" cx="826.902" cy="136.066" r="19.283"/>
		<g>
			
				<ellipse fill="#F64E15" stroke="#F6D26B" stroke-width="6" stroke-miterlimit="10" cx="850.183" cy="166.909" rx="48.671" ry="44.27"/>
			<circle fill="#F6D26B" cx="875.061" cy="162.094" r="16.062"/>
			<circle fill="#F6D26B" cx="825.721" cy="165.314" r="16.062"/>
			<circle fill="#F6D26B" cx="852.557" cy="156.13" r="2.874"/>
			<circle fill="#F6D26B" cx="856.901" cy="137.942" r="6.454"/>
			<circle fill="#F6D26B" cx="862.147" cy="190.671" r="10.815"/>
			<circle fill="#F6D26B" cx="837.957" cy="194.698" r="6.562"/>
		</g>
	</g>
	<g>
		<circle fill="#F64E15" stroke="#F6D26B" stroke-width="6" stroke-miterlimit="10" cx="1128.235" cy="121.968" r="19.283"/>
		<circle fill="#F64E15" stroke="#F6D26B" stroke-width="6" stroke-miterlimit="10" cx="1173.255" cy="197.961" r="19.282"/>
		<g>
			
				<ellipse fill="#F64E15" stroke="#F6D26B" stroke-width="6" stroke-miterlimit="10" cx="1149.974" cy="167.119" rx="48.671" ry="44.271"/>
			<circle fill="#F6D26B" cx="1125.097" cy="171.935" r="16.062"/>
			<circle fill="#F6D26B" cx="1174.437" cy="168.713" r="16.062"/>
			<circle fill="#F6D26B" cx="1147.598" cy="177.897" r="2.873"/>
			<circle fill="#F6D26B" cx="1143.255" cy="196.086" r="6.455"/>
			<circle fill="#F6D26B" cx="1138.011" cy="143.357" r="10.815"/>
			<circle fill="#F6D26B" cx="1162.198" cy="139.329" r="6.562"/>
		</g>
	</g>
	<g>
		<circle fill="#F64E15" stroke="#F6D26B" stroke-width="6" stroke-miterlimit="10" cx="656.83" cy="144.507" r="19.282"/>
		<circle fill="#F64E15" stroke="#F6D26B" stroke-width="6" stroke-miterlimit="10" cx="732.824" cy="189.529" r="19.282"/>
		<g>
			
				<ellipse fill="#F64E15" stroke="#F6D26B" stroke-width="6" stroke-miterlimit="10" cx="701.981" cy="166.246" rx="44.27" ry="48.672"/>
			<circle fill="#F6D26B" cx="706.796" cy="191.123" r="16.062"/>
			<circle fill="#F6D26B" cx="703.576" cy="141.784" r="16.062"/>
			<circle fill="#F6D26B" cx="712.76" cy="168.621" r="2.872"/>
			<circle fill="#F6D26B" cx="730.948" cy="172.965" r="6.456"/>
			<circle fill="#F6D26B" cx="678.22" cy="178.209" r="10.815"/>
			<circle fill="#F6D26B" cx="674.192" cy="154.021" r="6.561"/>
		</g>
	</g>
	<g>
		<circle fill="#F64E15" stroke="#F6D26B" stroke-width="6" stroke-miterlimit="10" cx="978.638" cy="212.736" r="19.283"/>
		<circle fill="#F64E15" stroke="#F6D26B" stroke-width="6" stroke-miterlimit="10" cx="1023.66" cy="136.742" r="19.283"/>
		<g>
			
				<ellipse fill="#F64E15" stroke="#F6D26B" stroke-width="6" stroke-miterlimit="10" cx="1000.378" cy="167.586" rx="48.671" ry="44.271"/>
			<circle fill="#F6D26B" cx="1025.256" cy="162.769" r="16.062"/>
			<circle fill="#F6D26B" cx="975.916" cy="165.991" r="16.062"/>
			<circle fill="#F6D26B" cx="1002.754" cy="156.806" r="2.873"/>
			<circle fill="#F6D26B" cx="1007.097" cy="138.618" r="6.454"/>
			<circle fill="#F6D26B" cx="1012.342" cy="191.348" r="10.814"/>
			<circle fill="#F6D26B" cx="988.154" cy="195.375" r="6.562"/>
		</g>
	</g>
	<g>
		<circle fill="#F64E15" stroke="#F6D26B" stroke-width="6" stroke-miterlimit="10" cx="1323.376" cy="121.642" r="19.282"/>
		<circle fill="#F64E15" stroke="#F6D26B" stroke-width="6" stroke-miterlimit="10" cx="1278.354" cy="197.636" r="19.282"/>
		<g>
			
				<ellipse fill="#F64E15" stroke="#F6D26B" stroke-width="6" stroke-miterlimit="10" cx="1301.636" cy="166.793" rx="48.672" ry="44.271"/>
			<circle fill="#F6D26B" cx="1276.758" cy="171.609" r="16.062"/>
			<circle fill="#F6D26B" cx="1326.099" cy="168.388" r="16.062"/>
			<circle fill="#F6D26B" cx="1299.261" cy="177.571" r="2.873"/>
			<circle fill="#F6D26B" cx="1294.918" cy="195.76" r="6.455"/>
			<circle fill="#F6D26B" cx="1289.673" cy="143.032" r="10.815"/>
			<circle fill="#F6D26B" cx="1313.862" cy="139.004" r="6.562"/>
		</g>
	</g>
	<g>
		<circle fill="#F64E15" stroke="#F6D26B" stroke-width="6" stroke-miterlimit="10" cx="445.152" cy="188.985" r="19.282"/>
		<circle fill="#F64E15" stroke="#F6D26B" stroke-width="6" stroke-miterlimit="10" cx="369.157" cy="143.964" r="19.282"/>
		<g>
			
				<ellipse fill="#F64E15" stroke="#F6D26B" stroke-width="6" stroke-miterlimit="10" cx="400" cy="167.247" rx="44.271" ry="48.672"/>
			<g id="Layer_2">
				<circle fill="#F6D26B" cx="395.185" cy="142.369" r="16.062"/>
				<circle fill="#F6D26B" cx="398.406" cy="191.708" r="16.061"/>
				<circle fill="#F6D26B" cx="389.221" cy="164.872" r="2.873"/>
				<circle fill="#F6D26B" cx="371.033" cy="160.527" r="6.454"/>
				<circle fill="#F6D26B" cx="423.761" cy="155.284" r="10.815"/>
				<circle fill="#F6D26B" cx="427.79" cy="179.471" r="6.562"/>
			</g>
		</g>
	</g>
</g>
</svg>
