<?xml version="1.0" encoding="utf-8"?>
<!-- Generator: Adobe Illustrator 16.0.0, SVG Export Plug-In . SVG Version: 6.00 Build 0)  -->
<!DOCTYPE svg PUBLIC "-//W3C//DTD SVG 1.1//EN" "http://www.w3.org/Graphics/SVG/1.1/DTD/svg11.dtd">
<svg version="1.1" xmlns="http://www.w3.org/2000/svg" xmlns:xlink="http://www.w3.org/1999/xlink" x="0px" y="0px"
	 width="127.559px" height="198.425px" viewBox="0 0 127.559 198.425" enable-background="new 0 0 127.559 198.425"
	 xml:space="preserve">
<g id="Layer_2" display="none">
	<g id="ppvk7W_1_" display="inline">
		
			<image overflow="visible" width="238" height="250" id="ppvk7W_2_" xlink:href="B981D4FFC063387F.png"  transform="matrix(1 0 0 1 -60.667 -96.6538)">
		</image>
	</g>
</g>
<g id="Layer_1">
	<rect x="28.346" fill="#FCF218" width="14.173" height="14.173"/>
	<rect x="42.519" fill="#FCF218" width="14.173" height="14.173"/>
	<rect x="56.692" y="0" fill="#FCF218" width="14.173" height="14.173"/>
	<rect x="70.865" y="0" fill="#FCF218" width="14.174" height="14.173"/>
	<rect x="85.039" fill="#FCF218" width="14.173" height="14.173"/>
	<rect x="14.172" y="14.173" fill="#FCF218" width="14.173" height="14.173"/>
	<rect x="28.345" y="28.347" fill="none" stroke="#F5E5D0" stroke-miterlimit="10" width="14.173" height="14.173"/>
	<rect x="28.345" y="14.173" fill="#FCF218" width="14.173" height="14.173"/>
	<rect x="42.519" y="28.347" fill="#FCF218" width="14.173" height="14.173"/>
	<rect x="42.519" y="14.173" fill="#FCF218" width="14.173" height="14.173"/>
	<rect x="56.691" y="28.347" fill="#FCF218" width="14.173" height="14.173"/>
	<rect x="56.691" y="14.173" fill="#FCF218" width="14.173" height="14.173"/>
	<rect x="70.865" y="28.347" fill="#FCF218" width="14.173" height="14.173"/>
	<rect x="70.865" y="14.173" fill="#FCF218" width="14.173" height="14.173"/>
	<rect x="85.038" y="28.347" fill="#FCF218" width="14.173" height="14.173"/>
	<rect x="85.038" y="14.174" fill="#FCF218" width="14.173" height="14.173"/>
	<rect x="99.211" y="28.347" fill="#FCF218" width="14.174" height="14.173"/>
	<rect x="113.385" y="28.347" fill="#FCF218" width="14.173" height="14.173"/>
	<rect x="99.211" y="14.174" fill="#FCF218" width="14.174" height="14.173"/>
	<rect x="14.172" y="28.347" fill="#FCF218" width="14.173" height="14.173"/>
	<rect x="14.173" y="42.52" fill="#FCF218" width="14.173" height="14.173"/>
	<rect x="28.346" y="56.693" fill="#FCF218" width="14.173" height="14.173"/>
	<rect x="28.346" y="42.52" fill="#FCF218" width="14.173" height="14.173"/>
	<rect x="42.52" y="56.693" fill="#FFFFFF" stroke="#FFFFFF" stroke-miterlimit="10" width="14.173" height="14.173"/>
	<rect x="42.52" y="42.52" fill="#FFFFFF" stroke="#FFFFFF" stroke-miterlimit="10" width="14.173" height="14.173"/>
	<rect x="56.692" y="56.693" fill="#FFFFFF" stroke="#FFFFFF" stroke-miterlimit="10" width="14.173" height="14.173"/>
	<rect x="56.692" y="42.52" fill="#FFFFFF" stroke="#FFFFFF" stroke-miterlimit="10" width="14.173" height="14.173"/>
	<rect x="70.866" y="56.693" fill="#FCF218" width="14.173" height="14.173"/>
	<rect x="70.866" y="42.52" fill="#FCF218" width="14.173" height="14.173"/>
	<rect x="85.039" y="56.693" fill="#FCF218" width="14.174" height="14.173"/>
	<rect x="85.039" y="42.52" fill="#FCF218" width="14.174" height="14.173"/>
	<rect x="99.212" y="56.693" fill="#FCF218" width="14.173" height="14.173"/>
	<rect x="113.385" y="56.693" fill="#FCF218" width="14.174" height="14.173"/>
	<rect x="99.213" y="42.52" fill="#FCF218" width="14.173" height="14.173"/>
	<rect x="113.385" y="42.52" fill="#FCF218" width="14.174" height="14.173"/>
	<rect x="14.173" y="56.693" fill="#FCF218" width="14.173" height="14.173"/>
	<rect x="14.172" y="70.866" fill="#FCF218" width="14.173" height="14.173"/>
	<rect x="28.346" y="85.04" fill="#FCF218" width="14.173" height="14.173"/>
	<rect x="28.346" y="70.866" fill="#FCF218" width="14.173" height="14.173"/>
	<rect x="42.519" y="85.04" fill="#FCF218" width="14.173" height="14.173"/>
	<rect x="42.519" y="70.866" fill="#FCF218" width="14.173" height="14.173"/>
	<rect x="56.692" y="85.04" fill="#FCF218" width="14.173" height="14.173"/>
	<rect x="56.692" y="70.866" fill="#FCF218" width="14.173" height="14.173"/>
	<rect x="70.865" y="85.04" fill="#FCF218" width="14.174" height="14.173"/>
	<rect x="70.865" y="70.866" fill="#FCF218" width="14.174" height="14.173"/>
	<rect x="85.039" y="85.04" fill="#FCF218" width="14.173" height="14.173"/>
	<rect x="85.039" y="70.867" fill="#FCF218" width="14.173" height="14.173"/>
	<rect x="99.211" y="85.04" fill="#FCF218" width="14.174" height="14.173"/>
	<rect x="113.385" y="85.04" fill="#FCF218" width="14.174" height="14.173"/>
	<rect x="99.212" y="70.867" fill="#FCF218" width="14.173" height="14.173"/>
	<rect x="113.385" y="70.867" fill="#FCF218" width="14.174" height="14.173"/>
	<rect x="14.172" y="85.04" fill="#FCF218" width="14.173" height="14.173"/>
	<rect x="14.173" y="99.212" fill="#FCF218" width="14.173" height="14.173"/>
	<rect x="28.346" y="113.386" fill="#FCF218" width="14.173" height="14.172"/>
	<rect x="28.346" y="99.212" fill="#FCF218" width="14.173" height="14.173"/>
	<rect x="42.52" y="113.386" fill="#FCF218" width="14.173" height="14.172"/>
	<rect x="42.52" y="99.212" fill="#FCF218" width="14.173" height="14.173"/>
	<rect x="56.692" y="113.386" fill="#FCF218" width="14.173" height="14.174"/>
	<rect x="56.692" y="99.212" fill="#FCF218" width="14.173" height="14.173"/>
	<rect x="70.866" y="113.386" fill="#FCF218" width="14.173" height="14.174"/>
	<rect x="70.866" y="99.212" fill="#FCF218" width="14.173" height="14.173"/>
	<rect x="85.039" y="113.386" fill="#FCF218" width="14.174" height="14.172"/>
	<rect x="85.039" y="99.213" fill="#FCF218" width="14.174" height="14.173"/>
	<rect x="99.213" y="99.213" fill="#FCF218" width="14.173" height="14.173"/>
	<rect x="42.519" y="141.731" fill="#818080" width="14.173" height="14.174"/>
	<rect x="42.519" y="127.56" fill="#818080" width="14.173" height="14.172"/>
	<rect x="56.692" y="141.733" fill="#818080" width="14.173" height="14.172"/>
	<rect x="56.692" y="127.56" fill="#818080" width="14.173" height="14.172"/>
	<rect x="70.865" y="141.733" fill="#818080" width="14.174" height="14.172"/>
	<rect x="70.865" y="127.56" fill="#818080" width="14.174" height="14.172"/>
	<rect x="42.52" y="170.079" fill="#818080" width="14.173" height="14.172"/>
	<rect x="42.52" y="155.905" fill="#E7E5E2" width="14.173" height="14.172"/>
	<rect x="56.693" y="170.079" fill="#818080" width="14.173" height="14.172"/>
	<rect x="56.693" y="155.905" fill="#E7E5E2" width="14.173" height="14.172"/>
	<rect x="70.866" y="170.079" fill="#E7E5E2" width="14.173" height="14.172"/>
	<rect x="70.866" y="155.905" fill="#818080" width="14.173" height="14.172"/>
	<rect x="49.606" y="184.251" fill="#818080" width="7.086" height="14.174"/>
	<rect x="56.692" y="184.251" fill="#818080" width="14.173" height="14.174"/>
	<rect x="70.866" y="184.251" fill="#818080" width="7.086" height="14.174"/>
	<rect x="-0.001" y="28.347" fill="#FCF218" width="14.173" height="14.173"/>
	<rect y="56.693" fill="#FCF218" width="14.173" height="14.173"/>
	<rect y="42.52" fill="#FCF218" width="14.173" height="14.173"/>
	<rect x="0" y="85.04" fill="#FCF218" width="14.173" height="14.173"/>
	<rect x="0" y="70.866" fill="#FCF218" width="14.173" height="14.173"/>
	<rect x="28.346" y="28.347" fill="#FCF218" width="14.173" height="14.174"/>
</g>
</svg>
