<?xml version="1.0" encoding="utf-8"?>
<!-- Generator: Adobe Illustrator 16.0.0, SVG Export Plug-In . SVG Version: 6.00 Build 0)  -->
<!DOCTYPE svg PUBLIC "-//W3C//DTD SVG 1.1//EN" "http://www.w3.org/Graphics/SVG/1.1/DTD/svg11.dtd">
<svg version="1.1" id="Layer_1" xmlns="http://www.w3.org/2000/svg" xmlns:xlink="http://www.w3.org/1999/xlink" x="0px" y="0px"
	 width="212.598px" height="216.334px" viewBox="0 0 212.598 216.334" enable-background="new 0 0 212.598 216.334"
	 xml:space="preserve">
<g id="Layer_2">
</g>
<rect x="198.425" y="58.144" fill="#86785E" width="14.174" height="14.173"/>
<rect x="184.252" y="72.317" fill="#9B7868" width="14.173" height="14.173"/>
<rect x="184.252" y="86.491" fill="#86785E" width="14.173" height="14.173"/>
<rect x="184.251" y="100.664" fill="#86785E" width="14.174" height="14.173"/>
<rect x="184.251" y="114.837" fill="#D2A352" width="14.174" height="14.173"/>
<rect x="184.252" y="129.01" fill="#9B7868" width="14.173" height="14.173"/>
<rect x="198.425" y="129.01" fill="#86785E" width="14.173" height="14.173"/>
<rect x="184.251" y="143.183" fill="#86785E" width="14.174" height="14.174"/>
<rect x="184.251" y="157.356" fill="#9B7868" width="14.174" height="14.172"/>
<rect x="184.251" y="171.528" fill="#86785E" width="14.174" height="14.175"/>
<rect x="184.251" y="185.703" fill="#544B3B" width="14.174" height="14.174"/>
<rect x="184.251" y="199.877" width="14.174" height="14.173"/>
<rect x="198.425" y="143.185" fill="#9B7868" width="14.173" height="14.172"/>
<rect x="198.425" y="157.356" fill="#9B7868" width="14.173" height="14.172"/>
<rect x="198.425" y="171.528" fill="#9B7868" width="14.173" height="14.175"/>
<rect x="198.425" y="185.703" fill="#544B3B" width="14.173" height="14.174"/>
<rect x="198.425" y="199.877" fill="#3F301A" width="14.173" height="14.173"/>
<rect x="184.252" y="58.144" fill="#D2A352" width="14.173" height="14.173"/>
<rect x="170.079" y="58.144" fill="#D3BD94" width="14.172" height="14.173"/>
<rect x="155.905" y="72.317" fill="#86785E" width="14.174" height="14.173"/>
<rect x="170.079" y="72.317" fill="#9B783D" width="14.172" height="14.173"/>
<rect x="155.905" y="86.49" fill="#D3BD94" width="14.174" height="14.173"/>
<rect x="170.079" y="86.49" fill="#9B7868" width="14.172" height="14.173"/>
<rect x="155.905" y="100.663" fill="#9B783D" width="14.173" height="14.173"/>
<rect x="170.079" y="100.663" fill="#86785E" width="14.172" height="14.173"/>
<rect x="155.905" y="114.836" fill="#D3BD94" width="14.173" height="14.173"/>
<rect x="170.079" y="114.836" fill="#30191A" width="14.172" height="14.173"/>
<rect x="155.905" y="129.01" fill="#86785E" width="14.174" height="14.173"/>
<rect x="170.078" y="129.01" fill="#86785E" width="14.173" height="14.173"/>
<rect x="155.905" y="143.183" fill="#9B783D" width="14.173" height="14.174"/>
<rect x="155.905" y="157.356" fill="#3F301A" width="14.173" height="14.172"/>
<rect x="155.905" y="171.528" fill="#9B7868" width="14.173" height="14.175"/>
<rect x="155.905" y="185.703" width="14.173" height="14.173"/>
<rect x="155.905" y="199.876" width="14.173" height="14.173"/>
<rect x="170.078" y="143.183" fill="#9B783D" width="14.173" height="14.174"/>
<rect x="170.078" y="157.356" fill="#3F301A" width="14.173" height="14.172"/>
<rect x="170.078" y="171.528" fill="#9B7868" width="14.173" height="14.175"/>
<rect x="170.078" y="185.703" fill="#9B7868" width="14.173" height="14.173"/>
<rect x="170.078" y="199.876" width="14.173" height="14.173"/>
<rect x="155.905" y="58.144" fill="#86785E" width="14.174" height="14.173"/>
<rect x="141.732" y="58.145" fill="#86785E" width="14.173" height="14.173"/>
<rect x="127.559" y="72.318" fill="#9B783D" width="14.173" height="14.173"/>
<rect x="141.732" y="72.318" fill="#9B783D" width="14.173" height="14.173"/>
<rect x="127.559" y="86.491" fill="#D2A352" width="14.173" height="14.173"/>
<rect x="141.732" y="86.491" fill="#86785E" width="14.173" height="14.173"/>
<rect x="127.559" y="100.664" fill="#9B783D" width="14.173" height="14.173"/>
<rect x="141.732" y="100.664" fill="#86785E" width="14.173" height="14.173"/>
<rect x="127.559" y="114.837" fill="#86785E" width="14.173" height="14.173"/>
<rect x="141.732" y="114.837" fill="#9B783D" width="14.173" height="14.173"/>
<rect x="127.559" y="129.011" fill="#9B783D" width="14.173" height="14.174"/>
<rect x="141.732" y="129.011" fill="#9B783D" width="14.173" height="14.174"/>
<rect x="127.559" y="143.185" fill="#86785E" width="14.173" height="14.172"/>
<rect x="127.559" y="157.356" fill="#9B783D" width="14.173" height="14.174"/>
<rect x="127.559" y="171.53" width="14.173" height="14.173"/>
<rect x="127.559" y="185.703" width="14.173" height="14.174"/>
<rect x="127.559" y="199.877" width="14.173" height="14.174"/>
<rect x="141.732" y="143.185" fill="#86785E" width="14.173" height="14.172"/>
<rect x="141.732" y="157.356" fill="#544B3B" width="14.173" height="14.174"/>
<rect x="141.732" y="171.53" fill="#86785E" width="14.173" height="14.173"/>
<rect x="141.732" y="185.703" width="14.173" height="14.174"/>
<rect x="141.732" y="199.877" width="14.173" height="14.174"/>
<rect x="127.559" y="58.145" fill="#D2A352" width="14.173" height="14.173"/>
<rect x="113.386" y="58.144" width="14.173" height="14.173"/>
<rect x="99.212" y="72.317" width="14.173" height="14.173"/>
<rect x="113.386" y="72.317" width="14.173" height="14.173"/>
<rect x="99.212" y="86.491" width="14.173" height="14.173"/>
<rect x="113.386" y="86.491" width="14.173" height="14.173"/>
<rect x="99.212" y="100.664" width="14.173" height="14.173"/>
<rect x="113.386" y="100.664" width="14.173" height="14.173"/>
<rect x="99.212" y="114.837" width="14.173" height="14.173"/>
<rect x="113.386" y="114.837" width="14.173" height="14.173"/>
<rect x="99.212" y="129.01" width="14.173" height="14.173"/>
<rect x="113.385" y="129.01" width="14.173" height="14.173"/>
<rect x="99.212" y="143.183" width="14.173" height="14.174"/>
<rect x="99.212" y="157.356" width="14.173" height="14.172"/>
<rect x="99.212" y="171.528" width="14.173" height="14.175"/>
<rect x="99.212" y="185.703" width="14.173" height="14.174"/>
<rect x="113.385" y="143.185" width="14.173" height="14.172"/>
<rect x="113.385" y="157.356" width="14.173" height="14.172"/>
<rect x="113.385" y="171.528" width="14.173" height="14.175"/>
<rect x="113.385" y="185.703" width="14.173" height="14.174"/>
<rect x="113.385" y="199.877" width="14.173" height="14.173"/>
<rect x="99.212" y="58.144" width="14.173" height="14.173"/>
<rect x="85.04" y="58.145" width="14.173" height="14.173"/>
<rect x="70.867" y="72.318" fill="#9B783D" width="14.172" height="14.173"/>
<rect x="85.04" y="72.318" width="14.173" height="14.173"/>
<rect x="70.867" y="86.491" fill="#9B783D" width="14.172" height="14.173"/>
<rect x="85.04" y="86.491" width="14.173" height="14.173"/>
<rect x="70.866" y="100.664" fill="#86785E" width="14.173" height="14.173"/>
<rect x="85.04" y="100.664" width="14.173" height="14.173"/>
<rect x="70.866" y="114.837" fill="#9B783D" width="14.173" height="14.173"/>
<rect x="85.04" y="114.837" width="14.173" height="14.173"/>
<rect x="70.867" y="129.011" fill="#86785E" width="14.172" height="14.174"/>
<rect x="85.039" y="129.011" width="14.173" height="14.174"/>
<rect x="70.866" y="143.185" fill="#9B7868" width="14.173" height="14.172"/>
<rect x="70.866" y="157.356" fill="#9B7868" width="14.173" height="14.174"/>
<rect x="70.866" y="171.53" width="14.173" height="14.173"/>
<rect x="70.866" y="185.703" width="14.173" height="14.174"/>
<rect x="85.039" y="143.185" width="14.173" height="14.172"/>
<rect x="85.039" y="157.356" width="14.173" height="14.174"/>
<rect x="85.039" y="171.53" width="14.173" height="14.173"/>
<rect x="85.039" y="185.703" width="14.173" height="14.174"/>
<rect x="70.867" y="58.145" fill="#D2A352" width="14.172" height="14.173"/>
<rect x="56.693" y="58.144" fill="#D2A352" width="14.174" height="14.173"/>
<rect x="42.519" y="72.317" fill="#9B7868" width="14.174" height="14.173"/>
<rect x="56.693" y="72.317" fill="#9B783D" width="14.174" height="14.173"/>
<rect x="42.519" y="86.491" fill="#D2A352" width="14.174" height="14.173"/>
<rect x="56.693" y="86.491" fill="#86785E" width="14.174" height="14.173"/>
<rect x="42.519" y="100.664" fill="#9B7868" width="14.172" height="14.173"/>
<rect x="56.693" y="100.664" fill="#86785E" width="14.174" height="14.173"/>
<rect x="42.519" y="114.837" fill="#86785E" width="14.172" height="14.173"/>
<rect x="56.693" y="114.837" fill="#9B7868" width="14.174" height="14.173"/>
<rect x="42.519" y="129.01" fill="#30191A" width="14.174" height="14.173"/>
<rect x="56.693" y="129.01" fill="#9B7868" width="14.173" height="14.173"/>
<rect x="42.519" y="143.183" fill="#30191A" width="14.172" height="14.174"/>
<rect x="42.519" y="157.356" fill="#544B3B" width="14.172" height="14.172"/>
<rect x="42.519" y="171.528" fill="#3F301A" width="14.172" height="14.175"/>
<rect x="42.519" y="185.703" width="14.172" height="14.174"/>
<rect x="56.693" y="143.185" fill="#86785E" width="14.173" height="14.172"/>
<rect x="56.693" y="157.356" fill="#9B7868" width="14.173" height="14.172"/>
<rect x="56.693" y="171.528" fill="#9B7868" width="14.173" height="14.175"/>
<rect x="56.693" y="185.703" width="14.173" height="14.174"/>
<rect x="42.519" y="58.144" fill="#86785E" width="14.174" height="14.173"/>
<rect x="28.348" y="58.145" fill="#86785E" width="14.171" height="14.173"/>
<rect x="28.348" y="72.318" fill="#86785E" width="14.171" height="14.173"/>
<rect x="14.174" y="86.492" fill="#9B7868" width="14.172" height="14.173"/>
<rect x="28.348" y="86.492" fill="#9B7868" width="14.171" height="14.173"/>
<rect x="14.174" y="100.665" fill="#544B3B" width="14.172" height="14.173"/>
<rect x="28.348" y="100.665" fill="#86785E" width="14.171" height="14.173"/>
<rect x="14.174" y="114.838" fill="#9B7868" width="14.172" height="14.173"/>
<rect x="28.348" y="114.838" fill="#544B3B" width="14.171" height="14.173"/>
<rect x="14.174" y="129.011" fill="#9B7868" width="14.172" height="14.174"/>
<rect x="28.346" y="129.011" fill="#3F301A" width="14.173" height="14.174"/>
<rect x="14.174" y="143.185" fill="#9B7868" width="14.172" height="14.172"/>
<rect x="14.174" y="157.356" fill="#3F301A" width="14.172" height="14.175"/>
<rect x="14.174" y="171.531" fill="#3F301A" width="14.172" height="14.173"/>
<rect x="14.174" y="185.704" fill="#30191A" width="14.172" height="14.173"/>
<rect x="14.174" y="199.877" width="14.172" height="14.174"/>
<rect x="28.346" y="143.185" fill="#9B7868" width="14.173" height="14.174"/>
<rect x="28.346" y="157.356" fill="#30191A" width="14.173" height="14.175"/>
<rect x="28.346" y="171.531" fill="#30191A" width="14.173" height="14.173"/>
<rect x="28.346" y="185.704" width="14.173" height="14.173"/>
<rect x="14.174" y="58.145" fill="#544B3B" width="14.172" height="14.173"/>
<rect x="0" y="114.837" fill="#3F301A" width="14.174" height="14.173"/>
<rect x="0" y="129.011" fill="#9B7868" width="14.172" height="14.174"/>
<rect x="0" y="143.185" fill="#3F301A" width="14.172" height="14.172"/>
<rect x="0" y="157.356" fill="#30191A" width="14.172" height="14.174"/>
<rect x="0" y="171.53" fill="#30191A" width="14.172" height="14.173"/>
<rect x="0" y="185.703" fill="#3F301A" width="14.172" height="14.174"/>
<rect x="0" y="199.877" fill="#3F301A" width="14.172" height="14.174"/>
<rect x="198.425" y="1.451" fill="#544B3B" width="14.174" height="14.174"/>
<rect x="184.252" y="15.625" fill="#86785E" width="14.173" height="14.174"/>
<rect x="198.425" y="15.625" fill="#544B3B" width="14.174" height="14.174"/>
<rect x="184.252" y="29.799" fill="#D3BD94" width="14.173" height="14.173"/>
<rect x="198.425" y="29.799" fill="#9B783D" width="14.174" height="14.173"/>
<rect x="184.251" y="43.971" fill="#86785E" width="14.174" height="14.174"/>
<rect x="198.425" y="43.971" fill="#86785E" width="14.174" height="14.174"/>
<rect x="184.252" y="1.451" width="14.173" height="14.174"/>
<rect x="170.079" y="1.451" width="14.172" height="14.174"/>
<rect x="155.905" y="15.625" width="14.174" height="14.173"/>
<rect x="170.079" y="15.625" fill="#544B3B" width="14.172" height="14.173"/>
<rect x="155.905" y="29.798" fill="#9B783D" width="14.174" height="14.173"/>
<rect x="170.079" y="29.798" fill="#D2A352" width="14.172" height="14.173"/>
<rect x="155.905" y="43.971" fill="#86785E" width="14.173" height="14.173"/>
<rect x="170.079" y="43.971" fill="#86785E" width="14.172" height="14.173"/>
<rect x="155.905" y="1.451" width="14.174" height="14.174"/>
<rect x="141.732" y="1.452" width="14.173" height="14.173"/>
<rect x="127.559" y="15.625" width="14.173" height="14.174"/>
<rect x="141.732" y="15.625" width="14.173" height="14.174"/>
<rect x="127.559" y="29.799" width="14.173" height="14.174"/>
<rect x="141.732" y="29.799" fill="#86785E" width="14.173" height="14.174"/>
<rect x="127.559" y="43.972" fill="#9B783D" width="14.173" height="14.173"/>
<rect x="141.732" y="43.972" fill="#D3BD94" width="14.173" height="14.173"/>
<rect x="127.559" y="1.452" width="14.173" height="14.173"/>
<rect x="99.212" y="15.625" width="14.173" height="14.174"/>
<rect x="113.386" y="15.625" width="14.173" height="14.174"/>
<rect x="99.212" y="29.799" width="14.173" height="14.173"/>
<rect x="113.386" y="29.799" width="14.173" height="14.173"/>
<rect x="99.212" y="43.971" width="14.173" height="14.174"/>
<rect x="113.386" y="43.971" width="14.173" height="14.174"/>
<rect x="70.867" y="15.625" width="14.172" height="14.174"/>
<rect x="85.04" y="15.625" width="14.173" height="14.174"/>
<rect x="70.867" y="29.799" width="14.172" height="14.174"/>
<rect x="85.04" y="29.799" width="14.173" height="14.174"/>
<rect x="70.866" y="43.972" fill="#9B783D" width="14.173" height="14.173"/>
<rect x="85.04" y="43.972" width="14.173" height="14.173"/>
<rect x="56.693" y="1.451" width="14.174" height="14.174"/>
<rect x="42.519" y="15.625" width="14.174" height="14.174"/>
<rect x="56.693" y="15.625" width="14.174" height="14.174"/>
<rect x="42.519" y="29.799" fill="#544B3B" width="14.174" height="14.173"/>
<rect x="56.693" y="29.799" fill="#86785E" width="14.174" height="14.173"/>
<rect x="42.519" y="43.971" fill="#544B3B" width="14.172" height="14.174"/>
<rect x="56.693" y="43.971" fill="#86785E" width="14.174" height="14.174"/>
<rect x="42.519" y="1.451" width="14.174" height="14.174"/>
<rect x="28.348" y="1.453" width="14.171" height="14.173"/>
<rect x="14.174" y="15.626" fill="#9B783D" width="14.172" height="14.173"/>
<rect x="28.346" y="15.626" fill="#86785E" width="14.171" height="14.173"/>
<rect x="14.174" y="29.799" fill="#544B3B" width="14.172" height="14.174"/>
<rect x="28.348" y="29.799" fill="#86785E" width="14.171" height="14.174"/>
<rect x="14.174" y="43.973" fill="#9B7868" width="14.172" height="14.173"/>
<rect x="28.348" y="43.973" fill="#544B3B" width="14.171" height="14.173"/>
<rect x="14.174" y="1.453" width="14.172" height="14.173"/>
<rect x="0" y="1.452" fill="#544B3B" width="14.174" height="14.173"/>
<rect x="0" y="15.625" fill="#86785E" width="14.174" height="14.174"/>
<rect x="0" y="43.972" fill="#D3BD94" width="14.173" height="14.173"/>
<rect x="0" y="58.145" fill="#D2A352" width="14.173" height="14.173"/>
<rect x="0" y="72.318" fill="#9B783D" width="14.173" height="14.173"/>
<rect x="0" y="86.491" fill="#9B783D" width="14.173" height="14.173"/>
<rect x="0" y="100.665" fill="#86785E" width="14.173" height="14.173"/>
<rect x="0" y="29.798" fill="#D2A352" width="14.173" height="14.174"/>
<rect x="14.172" y="72.318" fill="#D2A352" width="14.174" height="14.173"/>
<rect x="198.425" y="114.838" fill="#9B7868" width="14.172" height="14.173"/>
<rect x="198.425" y="100.665" fill="#3F301A" width="14.173" height="14.173"/>
<rect x="198.425" y="72.318" fill="#9B7868" width="14.172" height="14.173"/>
<rect x="198.425" y="86.491" fill="#86785E" width="14.172" height="14.173"/>
<rect x="99.212" y="1.452" width="14.172" height="14.173"/>
<rect x="113.387" y="1.452" width="14.172" height="14.173"/>
<rect x="70.866" y="1.453" width="14.173" height="14.173"/>
<rect x="85.04" y="1.453" width="14.173" height="14.173"/>
<rect x="70.865" y="199.877" width="14.173" height="14.174"/>
<rect x="85.039" y="199.877" width="14.173" height="14.174"/>
<rect x="42.519" y="199.878" width="14.173" height="14.173"/>
<rect x="56.692" y="199.878" width="14.174" height="14.173"/>
<rect x="28.346" y="199.877" width="14.172" height="14.174"/>
<rect x="99.212" y="199.876" width="14.173" height="14.173"/>
</svg>
